P3
# CREATOR: GIMP PNM Filter Version 1.1
26 20
255
255
255
255
255
255
255
255
255
255
255
255
255
255
255
255
255
255
255
255
255
255
255
255
255
255
255
255
255
255
255
255
255
255
255
255
255
255
255
255
255
255
255
255
255
255
255
255
255
255
255
255
255
255
255
255
255
255
255
255
255
255
255
255
255
255
255
255
255
255
255
0
0
0
255
0
255
0
0
255
255
255
255
255
255
255
255
255
255
255
255
255
255
255
255
255
255
255
255
255
255
255
255
255
255
255
255
255
255
255
255
255
255
255
255
255
255
255
255
255
255
255
0
0
255
0
0
255
0
0
255
0
0
255
0
0
255
0
0
255
0
0
255
0
0
255
0
0
255
0
0
0
201
0
255
0
0
255
255
255
255
255
255
255
255
255
255
255
255
255
255
255
255
255
255
255
255
255
255
255
255
255
255
255
255
255
255
255
255
255
255
255
255
255
255
255
255
255
255
255
0
0
0
200
0
0
0
255
0
0
255
0
0
255
0
0
255
255
255
0
255
255
0
255
0
0
255
0
0
0
0
255
255
0
0
255
255
255
255
255
255
255
255
255
255
255
255
255
255
255
255
255
255
255
255
255
255
255
255
255
255
255
255
255
255
255
255
255
255
255
255
255
255
255
255
255
255
255
0
0
0
0
255
255
0
0
255
0
0
255
0
0
255
0
0
0
0
255
0
0
255
255
0
0
255
0
0
0
0
255
255
0
0
255
255
255
255
255
255
255
255
255
255
255
255
255
255
255
255
255
255
255
255
255
255
255
255
255
255
255
255
255
255
255
255
255
255
255
255
255
255
255
255
255
255
255
0
0
255
255
0
255
0
0
255
255
255
255
255
255
255
255
255
255
0
0
0
0
255
255
0
0
255
0
0
0
0
255
255
0
0
255
255
255
255
0
0
255
0
0
255
0
0
255
0
0
255
0
0
255
0
0
255
0
0
255
0
0
255
0
0
255
0
0
255
0
0
255
0
0
255
0
0
255
0
0
0
0
255
0
0
255
255
0
0
255
255
255
255
255
255
255
0
0
0
0
255
0
0
255
0
0
255
0
0
255
255
0
0
255
0
0
0
0
255
0
0
255
0
0
255
0
0
255
0
0
255
0
0
255
0
0
255
0
0
255
0
0
255
0
0
255
0
0
255
0
0
255
0
0
255
0
0
255
0
0
0
0
0
255
255
0
0
255
0
0
255
0
0
255
0
0
255
255
0
255
255
255
255
0
0
255
0
0
255
0
0
255
0
0
0
0
255
0
0
200
255
0
0
255
0
0
255
0
0
255
0
0
255
0
0
255
0
0
0
0
255
255
0
0
255
0
0
255
0
0
255
0
0
255
0
0
255
0
0
0
0
255
0
0
255
255
255
0
0
0
255
0
0
255
0
0
255
0
0
255
255
0
0
255
255
255
255
255
255
255
0
0
255
255
0
255
0
0
255
0
0
255
0
0
255
0
0
255
255
255
255
255
255
255
0
0
0
0
255
255
0
0
255
255
255
255
255
255
255
255
255
255
255
255
255
0
0
0
0
255
255
0
0
255
0
0
255
0
0
255
0
0
255
0
0
0
0
255
255
0
0
255
255
255
255
255
255
255
0
0
0
0
255
0
0
255
0
0
255
255
255
0
255
0
0
255
255
255
255
255
255
255
0
0
0
0
255
255
0
0
255
255
255
255
255
255
255
255
255
255
255
255
255
0
0
0
0
255
255
0
0
0
0
255
0
0
255
0
0
255
0
0
255
255
255
0
255
0
0
255
255
255
255
255
255
255
255
255
255
0
0
255
0
0
255
0
0
0
0
255
255
0
0
255
255
255
255
255
255
255
0
0
0
0
255
255
0
0
255
255
255
255
0
0
255
0
0
255
0
0
255
0
0
0
0
255
255
0
0
0
0
255
255
0
0
255
0
0
255
0
0
255
0
0
255
0
0
255
255
255
255
255
255
255
255
255
255
0
0
255
0
0
255
0
0
0
0
255
255
0
0
255
0
0
255
0
0
255
0
0
0
0
255
255
0
0
255
255
255
255
0
0
0
0
255
0
0
255
0
0
255
255
255
0
255
0
0
255
255
0
255
0
0
255
255
255
255
255
255
255
255
255
255
255
255
255
255
255
255
255
255
255
0
0
0
0
0
0
0
255
0
0
255
0
0
255
0
0
255
0
0
255
0
0
255
0
0
255
0
0
255
255
0
0
255
255
255
255
0
0
0
0
255
255
0
0
255
0
0
255
0
0
255
0
0
0
0
255
255
0
0
255
0
0
255
255
255
255
255
255
255
255
255
255
255
255
255
255
255
255
255
255
255
0
0
255
0
0
255
0
0
255
0
0
255
0
0
255
0
0
255
0
0
255
0
0
0
0
255
255
0
0
255
255
255
255
0
0
0
0
255
255
255
0
255
0
0
255
255
0
0
0
255
0
0
255
0
0
201
255
255
0
255
0
0
255
255
255
255
255
255
255
255
255
255
255
255
255
255
255
255
255
255
255
255
255
255
255
255
255
255
255
255
255
255
255
255
255
255
255
255
255
0
0
0
0
255
255
0
0
255
255
255
255
0
0
0
0
255
0
0
255
255
0
0
0
0
255
255
0
0
255
0
0
255
0
0
255
0
0
255
255
255
255
255
255
255
255
255
255
255
255
255
255
255
255
255
255
255
255
255
255
255
255
255
255
255
255
255
255
255
255
255
255
255
255
255
255
255
255
0
0
0
0
255
255
0
0
255
255
255
255
0
0
0
0
255
255
0
0
255
0
0
0
0
255
255
0
0
255
255
255
255
255
255
255
255
255
255
255
255
255
255
255
255
255
255
255
255
255
255
255
255
255
255
255
255
255
255
255
255
255
255
255
255
255
255
255
255
255
255
255
255
255
255
255
255
255
0
0
0
0
255
255
0
0
255
255
255
255
0
0
0
0
255
0
0
255
0
0
255
0
0
255
255
0
0
255
255
255
255
255
255
255
255
255
255
255
255
255
255
255
255
255
255
255
255
255
255
255
255
255
255
255
255
255
255
255
255
255
255
255
255
255
255
255
255
255
255
255
255
255
255
255
255
255
0
0
0
0
255
255
0
0
255
255
255
255
0
0
255
0
0
0
0
255
0
0
255
255
0
0
255
255
255
255
255
255
255
255
255
255
255
255
255
255
255
255
255
255
255
255
255
255
255
255
255
255
255
255
255
255
255
255
255
255
255
255
255
255
255
255
255
255
255
255
255
255
255
255
255
255
255
255
0
0
0
0
255
255
0
0
255
255
255
255
255
255
255
0
0
255
255
0
255
0
0
255
255
255
255
255
255
255
255
255
255
255
255
255
255
255
255
255
255
255
255
255
255
255
255
255
255
255
255
255
255
255
255
255
255
255
255
255
255
255
255
255
255
255
255
255
255
255
255
255
255
255
255
255
255
255
0
0
255
0
255
255
0
0
255
255
255
255
255
255
255
255
255
255
0
0
255
255
255
255
255
255
255
255
255
255
255
255
255
255
255
255
255
255
255
255
255
255
255
255
255
255
255
255
255
255
255
255
255
