P3
# CREATOR: GIMP PNM Filter Version 1.1
40 20
255
255
255
255
255
255
255
255
255
255
255
255
255
255
255
255
255
255
255
255
255
255
255
255
255
255
255
255
255
255
255
255
255
255
255
255
255
255
255
255
255
255
255
255
255
255
255
255
255
255
255
255
255
255
255
255
255
255
255
255
255
255
255
255
255
255
255
255
255
255
255
0
0
0
255
0
255
0
0
255
255
255
255
255
255
255
255
255
255
255
255
255
255
255
255
255
255
255
255
255
255
255
255
255
255
255
255
255
255
255
255
255
255
255
255
255
255
255
255
255
255
255
255
255
255
255
255
255
255
255
255
255
255
255
255
255
255
255
255
255
255
255
255
255
255
255
255
255
255
255
255
255
255
255
255
255
255
255
255
255
255
255
255
255
255
255
255
255
255
255
255
255
255
255
255
255
255
255
255
255
255
255
255
255
255
255
255
255
255
255
255
0
0
0
200
0
255
0
0
255
0
0
255
0
0
255
0
0
255
0
0
255
255
255
255
255
255
255
255
255
255
255
255
255
255
255
255
255
255
255
255
255
255
255
255
255
255
255
255
255
255
255
255
255
255
255
255
255
255
255
255
255
255
255
255
255
255
255
255
255
255
255
255
255
255
255
255
255
255
255
255
255
255
255
255
255
255
255
255
255
255
255
255
255
255
255
255
255
255
255
255
255
255
255
255
255
255
255
255
255
255
255
255
255
255
255
255
255
255
255
255
0
0
0
0
255
0
0
255
0
0
255
0
0
255
0
0
255
0
0
255
255
0
0
255
255
255
255
255
255
255
255
255
255
255
255
255
255
255
255
255
255
255
255
255
255
255
255
255
255
255
255
255
255
255
255
255
255
255
255
255
255
255
255
255
255
255
255
255
255
255
255
255
255
255
255
255
255
255
255
255
255
255
255
255
255
255
255
255
255
255
255
255
255
255
255
255
255
255
255
255
255
255
255
255
255
255
255
255
255
255
255
255
255
255
255
255
255
255
255
255
255
255
255
0
0
255
0
0
255
0
0
255
0
0
255
0
0
0
0
255
255
0
0
255
255
255
255
255
255
255
255
255
255
255
255
255
255
255
255
255
255
255
255
255
255
255
255
255
255
255
255
255
255
255
255
255
255
255
255
255
255
255
255
255
255
255
255
255
255
255
255
255
255
255
255
255
255
255
255
255
255
255
255
255
255
255
255
255
255
255
255
255
255
255
255
255
255
255
255
255
255
255
255
255
255
255
255
255
255
255
255
255
255
255
255
255
255
255
255
255
255
255
255
255
255
255
255
255
255
255
255
255
255
255
255
0
0
0
0
255
255
0
0
255
255
255
255
255
255
255
255
255
255
255
255
255
255
255
255
255
255
255
255
255
255
255
255
255
255
255
255
255
255
255
0
0
255
0
0
255
0
0
255
0
0
255
0
0
255
0
0
255
0
0
255
0
0
255
0
0
255
0
0
255
0
0
255
0
0
255
0
0
255
0
0
255
0
0
255
0
0
255
0
0
255
255
255
255
255
255
255
255
255
255
255
255
255
255
255
255
255
255
255
255
255
255
255
255
255
255
255
255
255
255
255
0
0
0
0
255
255
0
0
255
255
255
255
255
255
255
255
255
255
255
255
255
255
255
255
255
255
255
255
255
255
255
255
255
255
255
255
0
0
0
0
255
0
0
255
0
0
255
0
0
255
0
0
255
0
0
255
0
0
255
0
0
255
0
0
255
0
0
255
0
0
255
0
0
255
0
0
255
0
0
255
0
0
0
0
0
255
255
0
0
255
255
255
255
255
255
255
255
255
255
255
255
255
255
255
255
255
255
255
255
255
255
255
255
255
255
255
255
255
255
255
0
0
0
0
255
255
0
0
255
255
255
255
255
255
255
255
255
255
255
255
255
255
255
255
255
255
255
255
255
255
255
255
255
255
255
255
0
0
0
0
255
0
0
200
255
0
0
255
0
0
255
0
0
255
0
0
255
0
0
255
0
0
0
0
255
255
0
0
255
0
0
255
0
0
255
0
0
255
0
0
255
0
0
0
0
255
255
0
0
255
255
255
255
255
255
255
255
255
255
255
255
255
255
255
255
255
255
255
255
255
255
255
255
255
255
255
255
0
0
0
0
255
0
0
255
255
0
0
255
255
255
255
255
255
255
255
255
255
255
255
255
255
255
255
255
255
255
255
255
255
255
255
255
255
255
255
0
0
255
255
0
255
0
0
255
0
0
255
0
0
255
0
0
255
255
255
255
255
255
255
0
0
0
0
255
255
0
0
255
255
255
255
255
255
255
255
255
255
255
255
255
0
0
0
0
255
255
0
0
255
0
0
255
0
0
255
0
0
255
0
0
255
0
0
255
0
0
255
0
0
255
0
0
255
0
0
0
0
255
0
0
255
255
0
0
255
255
255
255
255
255
255
255
255
255
255
255
255
255
255
255
255
255
255
255
255
255
255
255
255
255
255
255
255
255
255
0
0
100
100
100
0
0
255
0
0
255
255
255
0
255
0
0
255
255
255
255
255
255
255
0
0
0
0
255
255
0
0
255
255
255
255
255
255
255
255
255
255
255
255
255
0
0
0
0
255
255
0
0
0
0
255
0
0
255
0
0
255
0
0
255
0
0
255
0
0
255
0
0
255
0
0
255
0
0
255
0
0
255
255
0
0
255
255
255
255
255
255
255
255
255
255
255
255
255
255
255
255
255
255
255
255
255
255
255
255
255
255
255
255
255
255
255
255
255
255
255
255
255
0
0
255
0
0
255
0
0
0
0
255
255
0
0
255
255
255
255
255
255
255
0
0
0
0
255
255
0
0
255
255
255
255
0
0
255
0
0
255
0
0
255
0
0
0
0
255
255
0
0
0
0
255
255
0
0
255
0
0
255
0
0
255
0
0
255
0
0
255
0
0
255
0
0
255
0
0
255
0
0
255
0
0
255
255
255
255
255
255
255
255
255
255
255
255
255
255
255
255
255
255
255
255
255
255
255
255
255
255
255
255
255
255
255
255
255
255
255
255
255
0
0
255
0
0
255
0
0
0
0
255
255
0
0
255
0
0
255
0
0
255
0
0
0
0
255
255
0
0
255
0
0
0
0
255
0
0
255
0
0
255
0
0
255
0
0
255
255
0
0
0
0
255
255
0
0
255
255
255
255
255
255
255
255
255
255
255
255
255
255
255
255
255
255
255
255
255
255
255
255
255
255
255
255
255
255
255
255
255
255
255
255
255
255
255
255
255
255
255
255
255
255
255
255
255
255
255
255
255
255
255
255
255
255
255
255
255
0
0
0
0
0
0
0
255
0
0
255
0
0
255
0
0
255
0
0
255
0
0
255
0
0
255
0
0
255
255
0
0
255
0
0
0
0
255
255
0
0
255
0
0
255
0
0
255
0
0
255
0
0
0
0
255
255
0
0
255
0
0
255
0
0
255
0
0
255
0
0
255
255
255
255
255
255
255
255
255
255
255
255
255
255
255
255
255
255
255
255
255
255
255
255
255
255
255
255
255
255
255
255
255
255
255
255
255
255
255
255
255
255
255
255
255
255
255
255
255
255
255
255
0
0
255
0
0
255
0
0
255
0
0
255
0
0
255
0
0
255
0
0
255
0
0
0
0
255
255
0
0
255
0
0
0
0
255
255
0
0
255
255
255
255
255
255
255
255
255
255
0
0
0
0
255
0
0
255
0
0
255
0
0
255
0
0
255
255
0
0
255
255
255
255
255
255
255
255
255
255
255
255
255
255
255
255
255
255
255
255
255
255
255
255
255
255
255
255
255
255
255
255
255
255
255
255
255
255
255
255
255
255
255
255
255
255
255
255
255
255
255
255
255
255
255
255
255
255
255
255
255
255
255
255
255
255
255
255
255
255
255
255
255
0
0
0
0
255
255
0
0
255
0
0
0
0
255
255
0
0
255
255
255
255
255
255
255
255
255
255
255
255
255
0
0
255
0
0
255
0
0
255
0
0
0
0
255
255
0
0
255
255
255
255
255
255
255
255
255
255
255
255
255
255
255
255
255
255
255
255
255
255
255
255
255
255
255
255
255
255
255
255
255
255
255
255
255
255
255
255
255
255
255
255
255
255
255
255
255
255
255
255
255
255
255
255
255
255
255
255
255
255
255
255
255
255
255
255
255
255
255
255
255
0
0
0
0
255
255
0
0
255
0
0
0
0
255
255
0
0
255
0
0
255
0
0
255
0
0
255
0
0
255
0
0
255
0
0
255
0
0
255
0
0
0
0
255
255
0
0
255
255
255
255
255
255
255
255
255
255
255
255
255
255
255
255
255
255
255
255
255
255
255
255
255
255
255
255
255
255
255
255
255
255
255
255
255
255
255
255
255
255
255
255
255
255
255
255
255
255
255
255
255
255
255
255
255
255
255
255
255
255
255
255
255
255
255
255
255
255
255
255
255
0
0
0
0
255
255
0
0
255
0
0
0
0
255
0
0
255
0
0
255
0
0
255
0
0
255
0
0
255
0
0
255
0
0
255
0
0
255
0
0
255
0
0
255
255
0
0
255
255
255
255
255
255
255
255
255
255
255
255
255
255
255
255
255
255
255
255
255
255
255
255
255
255
255
255
255
255
255
255
255
255
255
255
255
255
255
255
255
255
255
255
255
255
255
255
255
255
255
255
255
255
255
255
255
255
255
255
255
255
255
255
255
255
255
255
255
255
255
255
255
0
0
0
0
255
255
0
0
255
255
255
255
0
0
255
0
0
255
0
0
255
0
0
255
0
0
255
0
0
255
0
0
255
0
0
255
0
0
255
0
0
255
0
0
255
0
0
255
255
255
255
255
255
255
255
255
255
255
255
255
255
255
255
255
255
255
255
255
255
255
255
255
255
255
255
255
255
255
255
255
255
255
255
255
255
255
255
255
255
255
255
255
255
255
255
255
255
255
255
255
255
255
255
255
255
255
255
255
255
255
255
255
255
255
255
255
255
255
255
255
0
0
0
0
255
255
0
0
255
255
255
255
255
255
255
255
255
255
255
255
255
255
255
255
255
255
255
255
255
255
255
255
255
255
255
255
255
255
255
255
255
255
255
255
255
255
255
255
255
255
255
255
255
255
255
255
255
255
255
255
255
255
255
255
255
255
255
255
255
255
255
255
255
255
255
255
255
255
255
255
255
255
255
255
255
255
255
255
255
255
255
255
255
255
255
255
255
255
255
255
255
255
255
255
255
255
255
255
255
255
255
255
255
255
255
255
255
255
255
255
0
0
255
0
255
255
0
0
255
255
255
255
255
255
255
255
255
255
255
255
255
255
255
255
255
255
255
255
255
255
255
255
255
255
255
255
255
255
255
255
255
255
255
255
255
255
255
255
255
255
255
255
255
255
255
255
255
255
255
255
255
255
255
255
255
255
255
255
255
255
255
255
255
255
255
255
255
255
255
255
255
255
255
255
255
255
255
255
255
255
255
255
255
255
255
